<mxfile host="app.diagrams.net" modified="2023-12-11T04:03:55.246Z" agent="Mozilla/5.0 (Windows NT 10.0; Win64; x64) AppleWebKit/537.36 (KHTML, like Gecko) Chrome/120.0.0.0 Safari/537.36" etag="C7eMkIqpHsOcPywXeqWk" version="22.1.7" type="github">
  <diagram name="Page-1" id="4ilMv_3q61RMYt3mxsJo">
    <mxGraphModel dx="1434" dy="758" grid="1" gridSize="10" guides="1" tooltips="1" connect="1" arrows="1" fold="1" page="1" pageScale="1" pageWidth="850" pageHeight="1100" math="0" shadow="0">
      <root>
        <mxCell id="0" />
        <mxCell id="1" parent="0" />
        <mxCell id="2Ka5Awgfg8_YyWwnlvO4-20" style="edgeStyle=orthogonalEdgeStyle;rounded=0;orthogonalLoop=1;jettySize=auto;html=1;exitX=0.5;exitY=1;exitDx=0;exitDy=0;entryX=0.5;entryY=0;entryDx=0;entryDy=0;" edge="1" parent="1" source="2Ka5Awgfg8_YyWwnlvO4-2" target="2Ka5Awgfg8_YyWwnlvO4-3">
          <mxGeometry relative="1" as="geometry" />
        </mxCell>
        <mxCell id="2Ka5Awgfg8_YyWwnlvO4-2" value="" style="ellipse;whiteSpace=wrap;html=1;aspect=fixed;fillColor=#000000;" vertex="1" parent="1">
          <mxGeometry x="320" y="60" width="50" height="50" as="geometry" />
        </mxCell>
        <mxCell id="2Ka5Awgfg8_YyWwnlvO4-3" value="Project Kickoff Meeting" style="rounded=1;whiteSpace=wrap;html=1;" vertex="1" parent="1">
          <mxGeometry x="285" y="130" width="120" height="70" as="geometry" />
        </mxCell>
        <mxCell id="2Ka5Awgfg8_YyWwnlvO4-4" value="" style="ellipse;html=1;shape=endState;fillColor=#000000;strokeColor=#000000;" vertex="1" parent="1">
          <mxGeometry x="870" y="320" width="50" height="50" as="geometry" />
        </mxCell>
        <mxCell id="2Ka5Awgfg8_YyWwnlvO4-5" value="Scrum Process Start" style="text;html=1;align=center;verticalAlign=middle;resizable=0;points=[];autosize=1;strokeColor=none;fillColor=none;" vertex="1" parent="1">
          <mxGeometry x="270" y="20" width="130" height="30" as="geometry" />
        </mxCell>
        <mxCell id="2Ka5Awgfg8_YyWwnlvO4-6" value="End Sprint" style="text;html=1;align=center;verticalAlign=middle;resizable=0;points=[];autosize=1;strokeColor=none;fillColor=none;" vertex="1" parent="1">
          <mxGeometry x="855" y="280" width="80" height="30" as="geometry" />
        </mxCell>
        <mxCell id="2Ka5Awgfg8_YyWwnlvO4-15" style="edgeStyle=orthogonalEdgeStyle;rounded=0;orthogonalLoop=1;jettySize=auto;html=1;exitX=0.5;exitY=1;exitDx=0;exitDy=0;entryX=0.5;entryY=0;entryDx=0;entryDy=0;dashed=1;" edge="1" parent="1" source="2Ka5Awgfg8_YyWwnlvO4-7" target="2Ka5Awgfg8_YyWwnlvO4-14">
          <mxGeometry relative="1" as="geometry" />
        </mxCell>
        <mxCell id="2Ka5Awgfg8_YyWwnlvO4-7" value="Sprint Planning" style="rounded=1;whiteSpace=wrap;html=1;" vertex="1" parent="1">
          <mxGeometry x="285" y="240" width="120" height="60" as="geometry" />
        </mxCell>
        <mxCell id="2Ka5Awgfg8_YyWwnlvO4-23" style="edgeStyle=orthogonalEdgeStyle;rounded=0;orthogonalLoop=1;jettySize=auto;html=1;exitX=1;exitY=0.5;exitDx=0;exitDy=0;entryX=0;entryY=0.5;entryDx=0;entryDy=0;" edge="1" parent="1" source="2Ka5Awgfg8_YyWwnlvO4-8" target="2Ka5Awgfg8_YyWwnlvO4-9">
          <mxGeometry relative="1" as="geometry" />
        </mxCell>
        <mxCell id="2Ka5Awgfg8_YyWwnlvO4-8" value="Daily Scrum" style="rounded=1;whiteSpace=wrap;html=1;" vertex="1" parent="1">
          <mxGeometry x="170" y="530" width="120" height="60" as="geometry" />
        </mxCell>
        <mxCell id="2Ka5Awgfg8_YyWwnlvO4-18" style="edgeStyle=orthogonalEdgeStyle;rounded=0;orthogonalLoop=1;jettySize=auto;html=1;exitX=1;exitY=0.5;exitDx=0;exitDy=0;entryX=0;entryY=0.5;entryDx=0;entryDy=0;dashed=1;" edge="1" parent="1" source="2Ka5Awgfg8_YyWwnlvO4-9" target="2Ka5Awgfg8_YyWwnlvO4-17">
          <mxGeometry relative="1" as="geometry" />
        </mxCell>
        <mxCell id="2Ka5Awgfg8_YyWwnlvO4-9" value="Sprint Review" style="rounded=1;whiteSpace=wrap;html=1;" vertex="1" parent="1">
          <mxGeometry x="360" y="530" width="120" height="60" as="geometry" />
        </mxCell>
        <mxCell id="2Ka5Awgfg8_YyWwnlvO4-25" style="edgeStyle=orthogonalEdgeStyle;rounded=0;orthogonalLoop=1;jettySize=auto;html=1;exitX=0.5;exitY=0;exitDx=0;exitDy=0;entryX=0.75;entryY=1;entryDx=0;entryDy=0;" edge="1" parent="1" source="2Ka5Awgfg8_YyWwnlvO4-11" target="2Ka5Awgfg8_YyWwnlvO4-7">
          <mxGeometry relative="1" as="geometry" />
        </mxCell>
        <mxCell id="2Ka5Awgfg8_YyWwnlvO4-26" style="edgeStyle=orthogonalEdgeStyle;rounded=0;orthogonalLoop=1;jettySize=auto;html=1;exitX=1;exitY=0.5;exitDx=0;exitDy=0;entryX=0;entryY=0.5;entryDx=0;entryDy=0;" edge="1" parent="1" source="2Ka5Awgfg8_YyWwnlvO4-11" target="2Ka5Awgfg8_YyWwnlvO4-4">
          <mxGeometry relative="1" as="geometry" />
        </mxCell>
        <mxCell id="2Ka5Awgfg8_YyWwnlvO4-27" style="edgeStyle=orthogonalEdgeStyle;rounded=0;orthogonalLoop=1;jettySize=auto;html=1;exitX=0.75;exitY=0;exitDx=0;exitDy=0;entryX=0.5;entryY=1;entryDx=0;entryDy=0;dashed=1;" edge="1" parent="1" source="2Ka5Awgfg8_YyWwnlvO4-11" target="2Ka5Awgfg8_YyWwnlvO4-12">
          <mxGeometry relative="1" as="geometry" />
        </mxCell>
        <mxCell id="2Ka5Awgfg8_YyWwnlvO4-11" value="Sprint Retrospective" style="rounded=1;whiteSpace=wrap;html=1;" vertex="1" parent="1">
          <mxGeometry x="560" y="360" width="130" height="70" as="geometry" />
        </mxCell>
        <mxCell id="2Ka5Awgfg8_YyWwnlvO4-13" style="edgeStyle=orthogonalEdgeStyle;rounded=0;orthogonalLoop=1;jettySize=auto;html=1;exitX=0;exitY=0.5;exitDx=0;exitDy=0;entryX=1;entryY=0.5;entryDx=0;entryDy=0;dashed=1;" edge="1" parent="1" source="2Ka5Awgfg8_YyWwnlvO4-12" target="2Ka5Awgfg8_YyWwnlvO4-7">
          <mxGeometry relative="1" as="geometry" />
        </mxCell>
        <mxCell id="2Ka5Awgfg8_YyWwnlvO4-12" value="Product backlog" style="rounded=0;whiteSpace=wrap;html=1;" vertex="1" parent="1">
          <mxGeometry x="610" y="245" width="100" height="50" as="geometry" />
        </mxCell>
        <mxCell id="2Ka5Awgfg8_YyWwnlvO4-22" style="edgeStyle=orthogonalEdgeStyle;rounded=0;orthogonalLoop=1;jettySize=auto;html=1;exitX=0.5;exitY=1;exitDx=0;exitDy=0;entryX=0;entryY=0.5;entryDx=0;entryDy=0;dashed=1;" edge="1" parent="1" source="2Ka5Awgfg8_YyWwnlvO4-14" target="2Ka5Awgfg8_YyWwnlvO4-8">
          <mxGeometry relative="1" as="geometry" />
        </mxCell>
        <mxCell id="2Ka5Awgfg8_YyWwnlvO4-14" value="Sprint Backlog" style="rounded=0;whiteSpace=wrap;html=1;" vertex="1" parent="1">
          <mxGeometry x="70" y="400" width="100" height="50" as="geometry" />
        </mxCell>
        <mxCell id="2Ka5Awgfg8_YyWwnlvO4-24" style="edgeStyle=orthogonalEdgeStyle;rounded=0;orthogonalLoop=1;jettySize=auto;html=1;exitX=0.5;exitY=0;exitDx=0;exitDy=0;entryX=0.5;entryY=1;entryDx=0;entryDy=0;" edge="1" parent="1" source="2Ka5Awgfg8_YyWwnlvO4-17" target="2Ka5Awgfg8_YyWwnlvO4-11">
          <mxGeometry relative="1" as="geometry" />
        </mxCell>
        <mxCell id="2Ka5Awgfg8_YyWwnlvO4-17" value="Potentially Shippable Product Increment" style="rounded=0;whiteSpace=wrap;html=1;" vertex="1" parent="1">
          <mxGeometry x="565" y="530" width="120" height="60" as="geometry" />
        </mxCell>
        <mxCell id="2Ka5Awgfg8_YyWwnlvO4-21" style="edgeStyle=orthogonalEdgeStyle;rounded=0;orthogonalLoop=1;jettySize=auto;html=1;exitX=0.5;exitY=1;exitDx=0;exitDy=0;entryX=0.5;entryY=0;entryDx=0;entryDy=0;" edge="1" parent="1" source="2Ka5Awgfg8_YyWwnlvO4-3" target="2Ka5Awgfg8_YyWwnlvO4-7">
          <mxGeometry relative="1" as="geometry" />
        </mxCell>
      </root>
    </mxGraphModel>
  </diagram>
</mxfile>
